Last Airbender, The (2010) Alternatieve titel: Airbender 

The story follows the adventures of Aang, a young successor to a long line of Avatars, who must put his childhood ways aside and stop the Fire Nation from enslaving the Water, Earth and Air nations.
 
http://www.imdb.com/title/tt0938283/

Subtitles (srt) : Dutch, English, French and Spanish.

Covers included.

In een mystieke wereld leven verschillende stammen die één van de vier elementen beheersen: water, aarde, lucht en vuur. De enige persoon die alle vier elementen beheerst is de Avatar. Tijdens een aanval van de Vuurnatie verdwijnt de Avatar plotseling. 100 jaar later ontdekken twee kinderen (Katara en Sokka van de Waterstam) een jongen genaamd Aang die zit vastgevroren in een rots. Hij blijkt de nieuwe Avatar te zijn en hij moet het evenwicht in de wereld weer zien te herstellen. Maar dat is niet geheel zonder gevaar...
 
http://www.moviemeter.nl/film/58046

Ondertitels (srt) : Engels, Frans, Nederlands en Spaans.

Hoesjes bijgevoegd.

General
Complete name                    : The Last Airbender-AC3-XviD-BRRip[Eng]2010 2Lions-Team\The Last Airbender-AC3-XviD-BRRip[Eng]2010 2Lions-Team.avi
Format                           : AVI
Format/Info                      : Audio Video Interleave
File size                        : 1.36 GiB
Duration                         : 1h 43mn
Overall bit rate                 : 1 890 Kbps
Writing application              : VirtualDubMod 1.5.4.1 (build 2178/release)
Writing library                  : VirtualDubMod build 2178/release

Video
ID                               : 0
Format                           : MPEG-4 Visual
Format profile                   : Simple@L3
Format settings, BVOP            : No
Format settings, QPel            : No
Format settings, GMC             : No warppoints
Format settings, Matrix          : Default (H.263)
Codec ID                         : XVID
Codec ID/Hint                    : XviD
Duration                         : 1h 43mn
Bit rate                         : 1 497 Kbps
Width                            : 720 pixels
Height                           : 304 pixels
Display aspect ratio             : 2.35:1
Frame rate                       : 23.976 fps
Color space                      : YUV
Chroma subsampling               : 4:2:0
Bit depth                        : 8 bits
Scan type                        : Progressive
Bits/(Pixel*Frame)               : 0.285
Stream size                      : 1.08 GiB (79%)
Writing library                  : XviD 1.1.2 (UTC 2006-11-01)

Audio
ID                               : 1
Format                           : AC-3
Format/Info                      : Audio Coding 3
Mode extension                   : CM (complete main)
Codec ID                         : 2000
Duration                         : 1h 43mn
Bit rate mode                    : Constant
Bit rate                         : 384 Kbps
Channel(s)                       : 6 channels
Channel positions                : Front: L C R, Side: L R, LFE
Sampling rate                    : 48.0 KHz
Bit depth                        : 16 bits
Stream size                      : 284 MiB (20%)
Alignment                        : Split accross interleaves
Interleave, duration             : 42 ms (1.00 video frame)
Interleave, preload duration     : 500 ms

Many Thanks to Simply ReleaseS for the source ,and subs.Excellent job again!!!!!

Brought to you by 
2Lions Team

meer zien??
                   
Kom dan eens kijken op ons NIEUWE forum 
            
http://www.2lions-site.nl/

2Lions the site to be for all your Dutch MOVIES and more

******************************************

DON T HIT AND RUN Niet gelijk afhaken als de FILM binnen is blijf seeden. 

Don`t quit after you finished the download, but keep seeding

There are fake torrents from uploaders who use our team name.
Those are not ours, or members from our team.
We 2Lions-Team are not responsible for the fake posts on our name

Wij 2Lions-Team zijn niet verantwoordelijk voor die zieke FAKE posten die op onze naam worden gedaan

Please check our site !!!

to the fakers , get a life !!!